<?xml version="1.0" encoding="UTF-8"?>
<svg width="540" height="350" version="1.1" viewBox="0 0 540 350" xmlns="http://www.w3.org/2000/svg" xmlns:xlink="http://www.w3.org/1999/xlink">
  <path transform="translate(-80, -105)" d="m450.44 170.92c17.355 0 33.086-13.535 35.828-30.816 1.4375-9.0508-0.85156-17.652-6.4531-24.219-5.4883-6.4297-13.715-10.121-22.574-10.121-17.355 0-33.09 13.535-35.84 30.824-1.4336 9.0508 0.86328 17.652 6.4609 24.215 5.4883 6.4297 13.719 10.117 22.578 10.117zm-6.9219-30.816c1.0117-6.3633 7.4219-11.938 13.707-11.938 2.3281 0 4.3008 0.80469 5.5312 2.2617 1.3008 1.5195 1.7695 3.6523 1.3711 6.1602-1.0078 6.3555-7.4102 11.934-13.707 11.934-2.3203 0-4.2969-0.80469-5.5312-2.2617-1.293-1.5234-1.7695-3.6523-1.3711-6.1562zm-207.82 229.96c-0.51562 3.2383 0.41406 6.5391 2.543 9.0312 2.1289 2.4805 5.2422 3.9258 8.5195 3.9258h344.69c5.5 0 10.191-4.0039 11.066-9.4453 9.2383-58.102-2.207-109.47-32.223-144.64-27.422-32.137-69.758-49.125-122.41-49.125-42.836 0-80.551 12.93-111.96 33.758-0.25391-0.015625-0.49219-0.078125-0.74609-0.078125h-143.27c-6.1836 0-11.199 5.0195-11.199 11.199 0 6.1836 5.0195 11.199 11.199 11.199h115.77c-5.1016 4.7656-9.9609 9.75-14.582 14.93h-200.6c-6.1836 0-11.199 5.0195-11.199 11.199 0 6.1836 5.0195 11.199 11.199 11.199h182.92c-6.0742 8.7266-11.559 17.773-16.379 27.07h-132.94c-6.1836 0-11.199 5.0117-11.199 11.199 0 6.1836 5.0195 11.199 11.199 11.199h122.74c-6.1797 15.629-10.633 31.586-13.145 47.379zm212.17-167.84c46.555 0 82.02 13.883 105.38 41.266 23.742 27.82 33.926 70.117 28.441 117.14h-321.34c18.168-79.039 87.281-158.4 187.53-158.4zm-42.418 25.832c-44.789 14.594-82.504 48.562-98.43 88.648-2.2852 5.7383 0.52734 12.258 6.2773 14.539 1.3555 0.55469 2.7539 0.80469 4.1328 0.80469 4.4531 0 8.668-2.6836 10.41-7.0664 13.324-33.531 46.52-63.223 84.559-75.617 5.8867-1.9141 9.1016-8.2383 7.1719-14.117-1.9102-5.8867-8.2031-9.1172-14.121-7.1914zm206.68 177.59c-4.9219-5.5039-11.957-8.5469-19.797-8.5469h-361.61c-15.094 0-28.801 11.777-31.199 26.809-1.25 7.8359 0.85156 15.652 5.7695 21.398 4.9062 5.75 11.977 8.9336 19.898 8.9336h362.05c15.094 0 28.801-11.781 31.258-27.301 0.92969-8.0938-1.332-15.652-6.3633-21.293zm-24.895 26.18h-362.04c-1.293 0-2.2578-0.35938-2.8633-1.0586-0.66016-0.77734-0.90625-1.9727-0.6875-3.3477 0.72266-4.543 5.3867-7.9297 9.0781-7.9297h361.6c0.97266 0 2.2969 0.18359 3.0898 1.0703 0.72656 0.8125 1.0234 2.168 0.89062 3.3359-0.71875 4.543-5.3828 7.9297-9.0664 7.9297z"/>
</svg>
